<svg
    xmlns="http://www.w3.org/2000/svg"
    width="36"
    height="36"
    viewBox="0 0 24 24"
    fill="none"
    stroke="currentColor"
    stroke-width="2"
    stroke-linecap="round"
    stroke-linejoin="round"
    class="ai ai-ArrowShuffle"
>
    <path
        d="M2 19h3.908a2 2 0 0 0 1.682-.919L11.5 12l3.91-6.082A2 2 0 0 1 17.091 5H22m0 14h-4.908a2 2 0 0 1-1.682-.919L13.428 15M2 5h3.908a2 2 0 0 1 1.682.918L9.571 9"
    />
    <path d="M19 2l3 3-3 3" />
    <path d="M19 16l3 3-3 3" />
</svg>
