
<svg
    xmlns="http://www.w3.org/2000/svg"
    xmlns:xlink="http://www.w3.org/1999/xlink"
    aria-hidden="true"
    role="img"
    width="32"
    height="32"
    viewBox="0 0 61 99">
    <g fill-rule="evenodd">
        <path d="M1.35 77.38C-.23 72.46 0 67.38 0 62.32V21.6c0-.78.18-1 1-1 2.76.06 5.51 0 8.27 0a8.25 8.25 0 0 1 8.31 8.07v39.39a12.77 12.77 0 0 0 7 11.89 13.22 13.22 0 0 0 17.94-5.22 13 13 0 0 0 1.06-2.53A12.6 12.6 0 0 0 41.19 60a13 13 0 0 0-11-5h-5c-.53 0-.72-.17-.72-.72V38.1c0-.51.18-.66.68-.66 4.08 0 8.19-.26 12.22.65a30.87 30.87 0 0 1 2.4 59.72 29.92 29.92 0 0 1-14.13.85 30.11 30.11 0 0 1-10.49-3.82A30.72 30.72 0 0 1 2.39 80.15l-.53-1.32c-.21-.47-.31-1-.51-1.45" fill="#a076f1"></path>
        <path d="M20.38 0a17.11 17.11 0 0 1 9.81 12.51 17.55 17.55 0 0 1-3.4 14.09A17.17 17.17 0 0 1 17 14.08 17.52 17.52 0 0 1 20.26.16zm21.29 17.87A17.12 17.12 0 0 1 56 19.6a17.18 17.18 0 0 1-21.33 11.61 17.52 17.52 0 0 1-4.19-1.88 17.18 17.18 0 0 1 11.19-11.46z" fill="#a076f1"></path>
    </g>
</svg>
